# xmcd CD database file
#
# Track frame offsets:
#	150
#	13985
#	24640
#	37315
#	51002
#	62780
#	74817
#	88122
#	98495
#	112847
#
# Disc length: 1670 seconds
#
# Revision: 2
# Processed by: cddbd v1.5.2PL0 Copyright (c) Steve Scherf et al.
# Submitted via: CDex 1.51
#
DISCID=8a06840a
DTITLE=Don Williams - Don Williams Vol. III
DYEAR=1990
DGENRE=Country
TTITLE0=I Wouldn't Want To Live If You Didn't Love Me
TTITLE1=Fly Away
TTITLE2=Ghost Story
TTITLE3=Goodbye Isn't Really Good At All
TTITLE4=Such A Lovely Lady
TTITLE5=The Ties That Bind
TTITLE6=When Will I Ever Learn
TTITLE7=Why Lord Goodbye
TTITLE8=I'v Turned You To Stone
TTITLE9=Lovin' Understandin' Man
EXTD=YEAR: 1990
EXTT0=
EXTT1=
EXTT2=
EXTT3=
EXTT4=
EXTT5=
EXTT6=
EXTT7=
EXTT8=
EXTT9=
PLAYORDER=
